<svg id="Layer_1" data-name="Layer 1" xmlns="http://www.w3.org/2000/svg" xmlns:xlink="http://www.w3.org/1999/xlink" viewBox="0 0 620 164"><defs><style>.cls-1{fill:url(#linear-gradient);}.cls-2{fill:#b2b2b2;}.cls-3{fill:#7c4cab;}</style><linearGradient id="linear-gradient" x1="108.63" y1="25.45" x2="163.72" y2="120.88" gradientUnits="userSpaceOnUse"><stop offset="0" stop-color="#7c4cab"/><stop offset="0.22" stop-color="#854da9"/><stop offset="0.57" stop-color="#9d50a3"/><stop offset="1" stop-color="#c4549a"/></linearGradient></defs><title>GB_LICENSING</title><path class="cls-1" d="M127.52,82a22.33,22.33,0,1,1,22.33,22.33A22.32,22.32,0,0,1,127.52,82M148.94,9.82c-25.42,0-39.69,15.43-39.69,38.32V122.6h16.18v-7.79a39.66,39.66,0,0,0,23.66,7.79l.38,0,.38,0a40.6,40.6,0,1,0-24.38-73V47.19c0-14.06,7.84-23.31,23.65-23.38v-14Z"/><path class="cls-2" d="M72.94,82A22.34,22.34,0,1,1,50.6,59.67,22.34,22.34,0,0,1,72.94,82M91.2,115.86V41.4H75v7.79A39.62,39.62,0,0,0,51.36,41.4l-.38,0-.38,0a40.6,40.6,0,1,0,24.38,73v2.39c0,14.07-7.84,23.32-23.65,23.39v14h.18c25.42,0,39.69-15.43,39.69-38.32"/><path class="cls-2" d="M256.87,72.31a10.16,10.16,0,1,1-20.32,0,10.16,10.16,0,1,1,20.32,0m9.24,17.25V54.35h-10v4.82a14,14,0,0,0-11.73-5.52c-9.93,0-17.8,7.7-17.8,18.66s7.87,18.87,17.94,18.87a13.87,13.87,0,0,0,11.59-5.41v4.71c0,6.68-3.69,10.5-10.4,10.5a13.83,13.83,0,0,1-12-6.39l-6.42,5.76c5.44,6.89,12.32,8.72,18.57,8.72,12.71,0,20.26-7.14,20.26-19.51"/><path class="cls-2" d="M304.18,72.94a10.52,10.52,0,0,1-10.74,10.72,10.72,10.72,0,0,1,0-21.44,10.54,10.54,0,0,1,10.74,10.72m9.62,0c0-11.17-8.81-19.29-20.32-19.29s-20.33,8.12-20.33,19.29,8.77,19.33,20.33,19.33,20.32-8.12,20.32-19.33"/><path class="cls-3" d="M351.1,72.87a10.71,10.71,0,1,1-21.42,0,10.71,10.71,0,1,1,21.42,0m10,0c0-11.21-8.29-19.4-18-19.4a15.12,15.12,0,0,0-12.32,5.59l0-21.47h-10v54h10V86.82a15.21,15.21,0,0,0,12.32,5.52c9.73,0,18-8.22,18-19.47"/><path class="cls-3" d="M384.59,92.27c10.81,0,17.2-5.48,17.2-14.44V54.35h-10V77.19c0,4.47-3.09,6.5-7.19,6.5s-7.13-2-7.13-6.5V54.35h-10V77.83c0,9,6.35,14.44,17.1,14.44"/><path class="cls-3" d="M422.81,92.27c8.29,0,14.43-4,14.43-12,0-7.63-5.65-9.91-10.71-11.53-4.28-1.37-8.1-2.11-8.1-4.74,0-2,1.79-3,4.38-3a18.17,18.17,0,0,1,9.13,3.1l4.32-6.58a24.86,24.86,0,0,0-13.2-3.86c-7.51,0-14,3.65-14,11.38,0,7.42,6,9.42,11,11.08,4.07,1.37,7.51,2.21,7.51,5,0,2.29-1.93,3.52-4.81,3.52-3.61,0-8.25-2-11.27-4.36l-4.21,7.17a28.25,28.25,0,0,0,15.55,4.78"/><path class="cls-3" d="M454.3,54.35h-9.94V91.57h9.94Zm.84-11.74a5.79,5.79,0,0,0-11.58,0,5.79,5.79,0,1,0,11.58,0"/><path class="cls-3" d="M485.23,53.65A13.19,13.19,0,0,0,474,59.59V54.35H464V91.57h10V70.41c0-5.66,3.13-8.36,7.37-8.36,3.87,0,6.64,1.72,6.64,7.66V91.57h10.07V67.92c0-9.32-4.91-14.27-12.84-14.27"/><path class="cls-3" d="M533.37,68.41H514.66A9.48,9.48,0,0,1,524.31,61c4.74,0,8.32,2.78,9.06,7.45m10,4.15c-.17-11.46-8.42-19-19.13-19-11.45,0-19.73,8.61-19.73,19.4s8.11,19.29,20.08,19.29c7.93,0,14.11-3.76,17.1-9.8l-7.94-3.34a10.31,10.31,0,0,1-9.2,5.16c-5.4,0-9.79-3.65-10.21-9.77h28.93Z"/><path class="cls-3" d="M562.07,92.27c8.28,0,14.43-4,14.43-12,0-7.63-5.65-9.91-10.71-11.53-4.28-1.37-8.11-2.11-8.11-4.74,0-2,1.79-3,4.39-3a18.17,18.17,0,0,1,9.13,3.1l4.32-6.58a24.9,24.9,0,0,0-13.21-3.86c-7.51,0-14,3.65-14,11.38,0,7.42,6,9.42,11,11.08,4.07,1.37,7.51,2.21,7.51,5,0,2.29-1.93,3.52-4.81,3.52-3.62,0-8.25-2-11.27-4.36l-4.21,7.17a28.2,28.2,0,0,0,15.55,4.78"/><path class="cls-3" d="M595.57,92.27c8.29,0,14.43-4,14.43-12,0-7.63-5.65-9.91-10.71-11.53-4.28-1.37-8.11-2.11-8.11-4.74,0-2,1.79-3,4.39-3a18.17,18.17,0,0,1,9.13,3.1L609,57.51a24.86,24.86,0,0,0-13.2-3.86c-7.52,0-14,3.65-14,11.38,0,7.42,6,9.42,11,11.08,4.07,1.37,7.51,2.21,7.51,5,0,2.29-1.93,3.52-4.81,3.52-3.61,0-8.25-2-11.27-4.36L580,87.49a28.22,28.22,0,0,0,15.55,4.78"/><path class="cls-2" d="M609.93,121.49h-11.7v3.61h7.31a9.57,9.57,0,0,1-9.64,7.45,9.72,9.72,0,0,1-10-9.86A10,10,0,0,1,604.07,117l3.64-2a14.06,14.06,0,0,0-11.82-6.21A13.91,13.91,0,1,0,610,122.58c0-.39,0-.78-.05-1.09m-41.36-12.42v20.57l-17-20.57h-3.49v27.09h4V115.54l17,20.62h3.52V109.07Zm-35.52,27.09h4.17V109.07h-4.17Zm-17.65.36c4.64,0,8.57-2.62,8.57-7.66s-3.77-6.77-7.27-8.26c-3.12-1.3-5.75-2.29-5.75-4.94,0-2.18,1.77-3.33,3.87-3.33a8.31,8.31,0,0,1,6.08,2.86l2.33-2.86a11.7,11.7,0,0,0-8.38-3.62c-4.43,0-7.94,2.76-7.94,7.32s3.64,6.35,7.27,7.91c3.05,1.3,5.7,2.38,5.7,5.13,0,2.38-2,3.83-4.59,3.83a9,9,0,0,1-6.95-3.67l-2.63,3a13.27,13.27,0,0,0,9.69,4.29m-22.3-27.45v20.57l-17-20.57h-3.49v27.09h4V115.54l17,20.62h3.53V109.07Zm-29.8,3.77v-3.77H447.76v27.09H463.3v-3.77H451.93v-7.87h10v-3.76h-10v-7.92Zm-33.83,23.68a14.57,14.57,0,0,0,10.09-4.17l-3-2.82a9.94,9.94,0,1,1,0-13.83l3-2.82a14.57,14.57,0,0,0-10.09-4.17,13.91,13.91,0,1,0,0,27.81M402,136.16h4.17V109.07H402Zm-17.65-3.77V109.07h-4.17v27.09h13.78v-3.77Z"/></svg>